<?xml version="1.0" encoding="UTF-8" standalone="no"?>
<svg
   xmlns:dc="http://purl.org/dc/elements/1.1/"
   xmlns:cc="http://creativecommons.org/ns#"
   xmlns:rdf="http://www.w3.org/1999/02/22-rdf-syntax-ns#"
   xmlns:svg="http://www.w3.org/2000/svg"
   xmlns="http://www.w3.org/2000/svg"
   xmlns:xlink="http://www.w3.org/1999/xlink"
   xmlns:sodipodi="http://sodipodi.sourceforge.net/DTD/sodipodi-0.dtd"
   xmlns:inkscape="http://www.inkscape.org/namespaces/inkscape"
   width="1000"
   height="500"
   viewBox="0 0 749.99943 374.99971"
   version="1.1"
   id="svg3"
   sodipodi:docname="gjep-logo-green.svg"
   inkscape:version="0.92.4 (f8dce91, 2019-08-02)">
  <metadata
     id="metadata9">
    <rdf:RDF>
      <cc:Work
         rdf:about="">
        <dc:format>image/svg+xml</dc:format>
        <dc:type
           rdf:resource="http://purl.org/dc/dcmitype/StillImage" />
        <dc:title></dc:title>
      </cc:Work>
    </rdf:RDF>
  </metadata>
  <defs
     id="defs7">
    <linearGradient
       inkscape:collect="always"
       id="linearGradient854">
      <stop
         style="stop-color:#f6d13b;stop-opacity:1"
         offset="0"
         id="stop850" />
      <stop
         style="stop-color:#d73a3e;stop-opacity:1"
         offset="1"
         id="stop852" />
    </linearGradient>
    <linearGradient
       inkscape:collect="always"
       xlink:href="#linearGradient854"
       id="linearGradient856"
       x1="-2589.4128"
       y1="-54.667744"
       x2="-1841.2626"
       y2="-54.667744"
       gradientUnits="userSpaceOnUse" />
    <linearGradient
       inkscape:collect="always"
       xlink:href="#linearGradient854"
       id="linearGradient890"
       gradientUnits="userSpaceOnUse"
       x1="-2589.4128"
       y1="-54.667744"
       x2="-1917.5338"
       y2="-54.667744" />
  </defs>
  <sodipodi:namedview
     pagecolor="#ffffff"
     bordercolor="#666666"
     borderopacity="1"
     objecttolerance="10"
     gridtolerance="10"
     guidetolerance="10"
     inkscape:pageopacity="0"
     inkscape:pageshadow="2"
     inkscape:window-width="1853"
     inkscape:window-height="1025"
     id="namedview5"
     showgrid="false"
     units="px"
     inkscape:zoom="0.70799944"
     inkscape:cx="477.26971"
     inkscape:cy="134.25063"
     inkscape:window-x="1987"
     inkscape:window-y="27"
     inkscape:window-maximized="1"
     inkscape:current-layer="svg3" />
  <g
     id="g902"
     transform="translate(1357.2136,370.84924)"
     style="fill:#35a047;fill-opacity:1">
    <g
       style="stroke-width:1.12533414;fill:#35a047;fill-opacity:1"
       transform="matrix(0.88862491,0,0,0.88862491,1004.3702,-267.73181)"
       id="g886">
      <path
         inkscape:connector-curvature="0"
         style="fill:#35a047;fill-opacity:1;stroke:none;stroke-width:1.12533414"
         d="m -2448.751,-72.339614 c 3.1,-1.08 3.48,-3.69 7.27,-3.73 0,0 6.91,0 6.91,0 11.5,-0.96 22.11,-5.26 33,-8.75 0,0 12,-3.35 12,-3.35 0,0 19,-7.94 19,-7.94 7.2,-2.52 13.76,-2.06 21,-3.56 0,0 38,-5.879996 38,-5.879996 0,0 11,0 11,0 0,0 10,-1.32 10,-1.32 0,0 8,-1.59 8,-1.59 14.25,-1.14 21.82,-0.97 36,0 0,0 8,0.83 8,0.83 0,0 27,-4.32 27,-4.32 8.51,-0.43 16.92,2.3 21,2.32 0,0 24,-2.83 24,-2.83 0,0 11,0 11,0 0,0 26.28,4.54 26.28,4.54 0,0 18.72,5.59 18.72,5.59 4.29,1.18 6.78,0.55 11,3.009996 6.43,3.74 9.86,10.49 14.04,12.3 0,0 12.96,2.22 12.96,2.22 0,0 28.83,5.4 28.83,5.4 8.05,2.1 15.6,7 24.17,6.85 3.88,3.71 11,6.08 16,8.37 0,0 34.42,16.82 34.42,16.82 0,0 16.58,10.33 16.58,10.33 4.52,3.04 6.44,5.67 12,6.48 5.21,6.57 7.95,7.23 13.72,12.23 0,0 16.28,14.1499999 16.28,14.1499999 0,0 14.83,9.37 14.83,9.37 4.41,3.33 3.02,3.53 10.17,8.1000001 0,0 24.74,15.54 24.74,15.54 3.13,2.97 8.17,13.070004 11.3,17.600004 0,0 5.73,7.18 5.73,7.18 8.5,11.6 13.26,23.7 7.35,37.66 -1.63,3.86 -4.61,6.88 -7.12,10.17 0,0 -6,-2 -6,-2 -3.48,-4.09 -8.51,-7.69 -14,-8 -1.23,-3.91 -12.14,-7.81 -16,-8 -3.92,-5.12 -5.04,-3.93 -10,-6.8 0,0 -15.83,-10.92 -15.83,-10.92 -18.23,-14.17 -22.1,-30.830004 -46.17,-37.280004 -1.43,-4.16 -8.28,-6.17 -12,-8.17 0,0 -17.09,-11.6000001 -17.09,-11.6000001 -7.88,-4.17 -10.88,0.55 -14.91,-10.23 0,0 -4,0 -4,0 0,0 1,-3 1,-3 0,0 -7,-4 -7,-4 0,0 -1,-1 -1,-1 -0.51,-2.4899999 -0.56,-2.4199999 -3,-2.9999999 -4.33,-6.13 -3.75,-3.75 -7.87,-6.63 -3.78,-2.64 -2.98,-3.86 -8.13,-4.37 0,0 -1,-1 -1,-1 0,0 1,-2 1,-2 -11.88,-1.11 -18.59,-11.53 -32,-11 -1.4,-4.36 -5.15,-3.78 -9,-4.89 0,0 -15.83,-2.5 -15.83,-2.5 0,0 -13.17,-4.34 -13.17,-4.34 0,0 -18,-3.55 -18,-3.55 0,0 -14,-3.26 -14,-3.26 0,0 -7.83,-0.7 -7.83,-0.7 0,0 -6.21,-1.8 -6.21,-1.8 0,0 -11.96,-1.26 -11.96,-1.26 -6.71,-0.96 -13.14,-2.62 -20,-2.7 0,0 -26,-1.17 -26,-1.17 0,0 -26,-1.83 -26,-1.83 0,0 -23,2.96 -23,2.96 0,0 -18,-0.78 -18,-0.78 0,0 -10,2.78 -10,2.78 0,0 -14,2.04 -14,2.04 0,0 -9,0 -9,0 0,0 -11,1.92 -11,1.92 0,0 -18,0 -18,0 -13.84,0.1 -20.58,2.85 -33,4.65 0,0 -15,1.89 -15,1.89 0,0 -18,4.46 -18,4.46 0,0 -7,2.6 -7,2.6 0,0 -7,1.71 -7,1.71 0,0 -13,4.92 -13,4.92 0,0 -16,3.59 -16,3.59 0,0 -6,0 -6,0 4.64,-0.75 -19.13,6.52 -16,5.4 -5.63,2.02 -5.34,5.15 -12.72,9.43 -4.88,2.83 -4.89,2.06 -8.19,3.69 0,0 -5.26,3.12 -5.26,3.12 0,0 -5.83,2.4499999 -5.83,2.4499999 0,0 -7,4.08 -7,4.08 0,0 -26.99,12.61 -26.99,12.61 0,0 -6.29,3.0500001 -6.29,3.0500001 -5.47,1.92 -14.13,3.02 -19.72,1.43 0,0 4,-8.0000001 4,-8.0000001 -7.7,-1.55 -13.26,-3.81000002 -20,2 -6.3,-0.39 -12.47,3.34 -18.94,2.15 -9.42,-1.74 1.16,-14.21 4.38,-16.99 5.91,-5.1199999 7.51,-3.9999999 13.56,-6.5099999 0,0 7,-3.02 7,-3.02 0,0 6.91,-0.9 6.91,-0.9 4.48,-0.93 15.22,-6.32 18.09,-9.73 0,0 7,2 7,2 0,0 -1,4 -1,4 6.49,-0.08 12.59,-2.09 17,-7 0,0 -8,3 -8,3 -0.68,-10.71 7.24,-10.05 13.83,-14.56 0,0 6.21,-4.72 6.21,-4.72 0,0 12.96,-6.99 12.96,-6.99 0,0 8.17,-6.6 8.17,-6.6 3.7,-2.26 20.28,-9.09 24.83,-10.13 0,0 -2,-2 -2,-2 0,0 0,-0.79 0,-0.79 2.94,0.62 5.81,1.46 8.82,0 z"
         id="path843" />
      <path
         inkscape:connector-curvature="0"
         style="fill:#35a047;fill-opacity:1;stroke:none;stroke-width:1.12533414"
         d="m -2360.571,0.48038588 c 9.1,-2.66999998 31.2,-7.87999998 40,-5.72999998 5.16,1.26 18.22,6.68 16.16,13.64 -1.14,3.8300001 -5.83,4.4400001 -9.16,5.1800001 0,0 -8,1.4 -8,1.4 0,0 -6,1.76 -6,1.76 0,0 -14,0.89 -14,0.89 0,0 -27,5.02 -27,5.02 -6.79,1.36 -8.98,0.78 -16,3.85 -6.98,3.06 -15.13,9.45 -20.83,14.500004 -4.54,4.02 -7,5.14 -10.71,10.46 -3.95,6.44 -5.81,17.72 0,23.94 4.56,5.36 17.52,8.26 24.54,7.74 0,0 12,-0.68 12,-0.68 10,-0.12 26.11,-4.18 36,-6.85 4.49,-1.21 10.23,-1.65 13.38,-5.26 1.32,-1.51 3.28,-4.33 1.08,-6.11 -2.54,-1.73 -16.65,-0.25 -20.46,0 0,0 -17,0 -17,0 -3.25,0.02 -8.87,0.01 -11.26,-2.5 -5.39,-5.65 5.95,-15.89 10.54,-18.2 3.8,-1.91 21.89,-3.39 27.72,-4.36 0,0 41,-7.720004 41,-7.720004 3.78,-0.04 10.81,-1.47 12,3 0,0 4,1 4,1 0,0 -5,5.000004 -5,5.000004 0.38,7.12 -2.51,7.1 -4.52,12.58 0,0 -1.31,8.25 -1.31,8.25 0,0 -5.67,9.17 -5.67,9.17 0,0 -3.8,8.75 -3.8,8.75 -1.35,2.05 -2.8,2.44 -4.23,3.94 0,0 -7.25,9.82 -7.25,9.82 -1.07,3.21 7.39,17.46 0,19.49 -3.06,5.07 -10.53,8.81 -16.22,9.87 0,0 -11,0 -11,0 -1.1,-2.36 -5.25,-11.57 -7.14,-12.78 -2.43,-1.19 -9.13,-0.58 -11.86,0 -6.64,0.85 -13.27,1.9 -20,1.91 0,0 -11,0 -11,0 -15.53,-0.02 -29.88,-6.31 -40.34,-17.85 -1.74,-1.92 -4.62,-4.9 -5.68,-7.16 -0.85,-1.83 -1.95,-11.86 -1.73,-13.99 0.29,-2.92 5.3,-16.71 6.68,-20 2.09,-5.04 11.04,-18.280004 15.12,-21.920004 5.31,-4.75 10.55,-9.58 16.95,-12.81 6.32,-3.19 19.78,-8.4900001 24,-13.2700001 5.11,0.22 11.01,-2.5 16,-3.97000002 z"
         id="path841" />
      <path
         inkscape:connector-curvature="0"
         style="fill:#35a047;fill-opacity:1;stroke:none;stroke-width:1.12533414"
         d="m -2214.381,73.45039 c 0.64,-7.73 3.36,-10.75 5.38,-16.91 1.12,-3.43 0.34,-5.35 2.59,-9.05 3.39,-5.62 9.95,-7.37 15.84,-9.16 8.16,-2.460004 17.48,-2.390004 26,-3.030004 9.42,-0.72 16.54,-2.54 26,-0.85 -2.23,12.420004 1.14,18.830004 -11,19.000004 0,0 -20,0 -20,0 -5.5,-0.07 -16.21,-2.19 -20.7,1.71 -2.76,2.39 -3.02,6.9 -3.3,10.29 0,0 10,-1.82 10,-1.82 0,0 21,-1.18 21,-1.18 2.29,0.03 9.01,0.24 10.89,0.98 6.23,2.48 3.39,11.01 -0.5,14.28 -2.48,2.09 -6.33,1.73 -9.39,1.74 -6.67,0.01 -29.92,2.2 -36,4 1.24,4.91 1.68,10.14 6.18,13.4 3.55,2.57 8.76,1.34 12.82,1.19 0,0 16,1.23 16,1.23 6.64,0.47 12.65,-2.5 19,-3.5 2.49,-0.39 6.08,-0.69 7.4,1.99 0.59,1.21 0.57,3.36 0.6,4.69 0.04,2.51 0.29,6.51 -1.6,8.4 -1.64,1.65 -5.16,1.71 -7.4,2.02 -5.66,0.8 -11.27,1.57 -17,1.58 0,0 -28,-0.93 -28,-0.93 -3.19,-0.29 -12.05,-1.44 -14.53,-3.05 -3.94,-2.55 -5.12,-9 -8.47,-13.02 0,0 -1.81,-24 -1.81,-24 z"
         id="path839" />
      <path
         inkscape:connector-curvature="0"
         style="fill:#35a047;fill-opacity:1;stroke:none;stroke-width:1.12533414"
         d="m -2247.931,71.45039 c 0,0 -3.62,-13 -3.62,-13 -1.07,-4.82 -4.91,-19.09 -0.71,-22.360004 4.21,-3.28 12.86,1.820004 13.9,6.380004 0,0 0,16.98 0,16.98 -0.19,11.9 1.28,9.02 2.6,17 0,0 5.73,34 5.73,34 1.3,6.91 4.35,16.58 -3.58,20.88 -3.9,1.82 -10.71,0.86 -14.96,0 -13.86,-1.98 -20.48,-5.9 -32,-13.55 -2.55,-1.69 -6.82,-4.41 -8.78,-6.51 -5.92,-6.05 -3.44,-15.37 0,-17.49 2,-1.16 6.35,-1.04 8.78,-1.33 5.2,8.25 12.13,11.11 20,15.91 0,0 11,7.09 11,7.09 4.76,-12.69 4.35,-30.85 1.64,-44 z"
         id="path837" />
      <path
         inkscape:connector-curvature="0"
         style="fill:#35a047;fill-opacity:1;stroke:none;stroke-width:1.50044668"
         d="m -2787.9746,48.582031 c -1.6067,-0.0099 -3.2057,-7.55e-4 -4.7891,0.01758 -5.8133,0.06667 -25.894,2.933696 -30.414,5.707032 -2.5734,1.573334 -4.106,3.56031 -5.2793,6.320312 -3.4134,7.946673 1.9075,20.839968 3.2675,29.306641 l 1.9864,21.333984 2.4394,13.21289 2.666,29.45312 c 7.2934,-1.05333 17.3351,-4.93202 18.4551,-13.33203 l -1.1211,-26.66797 c 11.4267,1.02667 16.3073,4.32084 29.334,1.1875 6.6667,-1.61333 13.2133,-4.62718 18.6133,-8.86718 4.92,-3.88001 14.3202,-17.947575 14.2402,-24.26758 -0.1066,-8.53334 -10.0808,-21.532653 -16.8808,-25.972656 -9.625,-6.30001 -21.2708,-7.362552 -32.5176,-7.431641 z m -16.7891,21.351563 h 12 c 8.0267,0.01333 25.6398,1.320696 28.4532,10.720703 1.5066,5.000004 -2.8259,9.092342 -7.1192,10.652344 -4.9867,1.800001 -23.0812,1.413829 -27.5879,-0.826172 -4.44,-2.213335 -5.3594,-15.840205 -5.7461,-20.546875 z"
         transform="scale(0.74999943)"
         id="path835" />
      <path
         inkscape:connector-curvature="0"
         style="fill:#35a047;fill-opacity:1;stroke:none;stroke-width:1.12533414;stroke-opacity:1"
         d="m -2594.571,171.45039 c 0,0 22,0 22,0 8.45,-0.12 10.11,-2.98 23,-2.87 0,0 39,0 39,0 0,0 9,0.82 9,0.82 0,0 12,0 12,0 0,0 10,-1.15 10,-1.15 0,0 157,0 157,0 0,0 62,0 62,0 0,0 9,0 9,0 0,0 11,-0.8 11,-0.8 0,0 41,0 41,0 0,0 17,-1 17,-1 0,0 52,0 52,0 0,0 17,-1 17,-1 0,0 73,0 73,0 0,0 11,-0.92 11,-0.92 0,0 8,0.74 8,0.74 0,0 12,-0.82 12,-0.82 0,0 53,1 53,1 1.54,4.82 5.85,3.76 10,4.17 3.99,0.39 14.86,1.55 17.78,3.72 1.72,1.27 2.19,2.37 3.22,4.11 0,0 -17,3 -17,3 0,0 11,2 11,2 0,0 0,3 0,3 0,0 -1,0 -1,0 0,0 -2,2 -2,2 0,0 24,0 24,0 10.55,0.05 7.94,2.41 13.28,3.9 2.91,0.82 9.57,1.1 12.72,1.1 0,0 66,-1 66,-1 0,0 2,5 2,5 0,0 -37,1 -37,1 0,0 -29,0 -29,0 0,0 -10,0.58 -10,0.58 0,0 -10,0 -10,0 0,0 -7,-0.56 -7,-0.56 0,0 -13,0 -13,0 0,0 -11,0.95 -11,0.95 0,0 -117,0 -117,0 0,0 -10,0.93 -10,0.93 0,0 -9,-0.72 -9,-0.72 0,0 -12,0.82 -12,0.82 0,0 -281,0 -281,0 0,0 -200,0 -200,0 0,0 -62,0 -62,0 0,0 -33,-1 -33,-1 0,0 0,-2 0,-2 0,0 14,-2 14,-2 2.54,-7.45 13.63,-6.13 20,-8 0,0 -2,0 -2,0 0,0 0,-1 0,-1 8.25,-3.76 8.13,-3 17,-3 0,0 0,-2 0,-2 0,0 -15,0 -15,0 10.44,-12.89 14.93,-9.02 29,-9 z"
         id="path831" />
      <g
         id="g847"
         style="fill:#35a047;fill-opacity:1;stroke:none;stroke-width:1.12533414;stroke-opacity:1">
        <path
           inkscape:connector-curvature="0"
           id="path829"
           d="m -2216.571,244.62039 c 9.67,-4.23 17.38,-8 28,-9.24 3.21,-0.42 4.9,-0.06 8,0 14.63,0.5 11.31,0.59 25,4.63 0,0 6.72,1.87 6.72,1.87 3.59,1.57 10.19,7.51 16.28,9.57 1.34,4.7 8.14,9.91 12,13 0,0 -1,3 -1,3 5.33,1.84 4.94,3.19 9.09,5.47 5.16,2.84 10.09,3.72 15.91,3.51 6.45,-0.23 11.27,-3.59 17,-5.87 11.84,-4.69 23.07,-10.06 33.97,-16.73 4.44,-2.72 3.24,-4.78 7.03,-6.38 0,0 -1,3 -1,3 6.8,-4.17 5.57,-2.14 12,-4.3 9.44,-3.16 18.97,-5.83 29,-6.33 0,0 14,0.63 14,0.63 4.62,3.87 5.27,1.51 9.83,2.94 0,0 16.17,8.1 16.17,8.1 0,0 8.62,3.23 8.62,3.23 3.62,2.32 3.61,6.28 5.87,9.13 1.61,2.03 8.1,6.67 10.51,8.57 0,0 13.68,9.33 13.68,9.33 1.87,1.5 2.66,3.88 0,5.09 -3.43,1.56 -6.95,-1.49 -9.48,-3.35 -4.45,-3.27 -9.64,-6.54 -15.2,-7.04 0,0 -3.14,-2.86 -3.14,-2.86 0,0 -12.86,-5.11 -12.86,-5.11 0,0 -6.91,-0.8 -6.91,-0.8 0,0 -12.09,-3.06 -12.09,-3.06 0,0 -17,0 -17,0 0,0 -11,2.79 -11,2.79 0,0 -17,1.04 -17,1.04 0,0 2,2 2,2 -8.09,0.63 -8.11,3.64 -14.28,6.61 0,0 -38.72,21.39 -38.72,21.39 0,0 -2,-2 -2,-2 -3.4,5.11 -11.54,5.64 -17.28,5.84 -14,0.48 -21.32,-0.91 -33.71,-7.67 -5.51,-3.01 -6.43,-6 -14.01,-9.17 0,0 1,-2 1,-2 0,0 -2,0 -2,0 -0.62,-4.75 -8.04,-9.45 -12.08,-11.93 -3.51,-2.15 -11.63,-7.44 -14.92,-8.79 -8.4,-2.73 -17.42,-1.01 -26,0 -19.01,1.58 -40.61,22.96 -59.71,30.07 -11.89,4.14 -33.55,4.73 -45.29,0 0,0 -16.83,-8.38 -16.83,-8.38 -3.99,-2.38 -2.38,-2.29 -8.17,-4.97 0,0 1,-2 1,-2 -11.24,-4.69 -18.47,-13.27 -31,-12.99 -7.04,0.17 -21.82,5.78 -29,8.2 0,0 -12,3.32 -12,3.32 -18.01,6.75 -26.26,12.78 -46.72,13.09 0,0 -40.28,-4.62 -40.28,-4.62 -3.24,-5.22 -7.66,-4.37 -13,-6.04 -17.01,-5.32 -34.8,-1.39 -52,1.04 -7.81,1.1 -16.13,4.44 -22,-2 0,0 13,-6 13,-6 -6.61,0.26 -12.76,3.48 -19,5.38 -12.19,3.71 -25.96,5.81 -38,0.62 0,0 3,-5 3,-5 0,0 -2,1 -2,1 0,0 2,-3 2,-3 -12.31,-0.33 -16.46,-1.89 -26.96,-8.29 -2.9,-1.77 -6.8,-4.15 -9.33,-6.37 -3.19,-2.8 -6.2,-7.03 -6.76,-11.32 -0.25,-1.88 -0.16,-4.3 2.27,-4.5 3.2,-0.27 4.74,3.07 6.29,5.21 2.38,3.27 6,6.39 9.49,8.42 4.89,2.84 8.02,3.4 13,5.15 0,0 8,3.09 8,3.09 10.34,2.77 20.74,1.38 31,-0.73 2.81,-0.57 13.59,-1.55 15.17,-2.9 0.98,-0.82 0.62,-1.16 0.83,-1.76 3.58,-1.01 8.79,-2.16 10,-6 0,0 9,-1.44 9,-1.44 8.52,-2.62 9.61,-7.19 23,-7.56 1.82,-2.08 6.73,-4.01 9.27,-2.14 1.69,1.26 2.34,4.41 4.99,6.16 3,1.98 9.22,2.19 12.74,1.98 0,0 4,3 4,3 0,0 -4,3 -4,3 0,0 2,4 2,4 0,0 13,2.5 13,2.5 0,0 20,4.5 20,4.5 2.72,-3.03 10.92,-1.97 15,-2 9.16,-0.07 16.23,-2.42 25,-4.92 0,0 23,-9.29 23,-9.29 0,0 13,-4.64 13,-4.64 0,0 15.96,-6.66 15.96,-6.66 5.01,-0.75 3.24,2.49 15.04,2.51 14.25,0.02 20.16,0.65 33,7.73 5.37,2.96 15.02,7.11 18,12.27 0,0 10,3 10,3 3.53,3.93 5.91,4.51 11,5.55 15.43,3.16 26.35,-3.27 40,-9.27 4.52,-1.98 11.48,-4.95 15,-8.28 4.69,-0.26 10.59,-3.91 15,-5.83 z"
           style="fill:#35a047;fill-opacity:1;stroke:none;stroke-width:1.12533414;stroke-opacity:1" />
        <path
           inkscape:connector-curvature="0"
           id="Selection #1"
           d="m -1815.571,240.45039 c -1.17,4.76 -0.77,4.98 2,9 0,0 -2,0 -2,0 3.79,5.3 -0.09,8.65 -3.31,13 0,0 -4.49,6.02 -4.49,6.02 -10.54,11.63 -18.36,18.06 -33.2,23.81 -5.65,2.19 -9.9,4.59 -16,2.17 0,0 0,-3 0,-3 0,0 5,-1 5,-1 1.33,-7.62 8.53,-6.93 10,-11 1.98,-0.22 3.1,-0.26 5,-1.09 4.64,-2.01 19.72,-14.72 23.23,-19.12 3.62,-4.54 5.35,-10.45 5.94,-11.06 0.93,-0.97 1.1,-0.53 1.83,-0.73 0,0 0,-4 0,-4 0,0 2,1 2,1 0,0 4,-4 4,-4 z"
           style="fill:#35a047;fill-opacity:1;stroke:none;stroke-width:1.12533414;stroke-opacity:1" />
      </g>
    </g>
  </g>
</svg>
