<?xml version="1.0" encoding="UTF-8" standalone="no"?>
<svg
   xmlns:dc="http://purl.org/dc/elements/1.1/"
   xmlns:cc="http://creativecommons.org/ns#"
   xmlns:rdf="http://www.w3.org/1999/02/22-rdf-syntax-ns#"
   xmlns:svg="http://www.w3.org/2000/svg"
   xmlns="http://www.w3.org/2000/svg"
   xmlns:xlink="http://www.w3.org/1999/xlink"
   xmlns:sodipodi="http://sodipodi.sourceforge.net/DTD/sodipodi-0.dtd"
   xmlns:inkscape="http://www.inkscape.org/namespaces/inkscape"
   width="1000"
   height="360"
   viewBox="0 0 749.99943 269.99979"
   version="1.1"
   id="svg3"
   sodipodi:docname="gjep-logo-green-text.svg"
   inkscape:version="0.92.4 (f8dce91, 2019-08-02)">
  <metadata
     id="metadata9">
    <rdf:RDF>
      <cc:Work
         rdf:about="">
        <dc:format>image/svg+xml</dc:format>
        <dc:type
           rdf:resource="http://purl.org/dc/dcmitype/StillImage" />
        <dc:title></dc:title>
      </cc:Work>
    </rdf:RDF>
  </metadata>
  <defs
     id="defs7">
    <linearGradient
       inkscape:collect="always"
       id="linearGradient854">
      <stop
         style="stop-color:#f6d13b;stop-opacity:1"
         offset="0"
         id="stop850" />
      <stop
         style="stop-color:#d73a3e;stop-opacity:1"
         offset="1"
         id="stop852" />
    </linearGradient>
    <linearGradient
       inkscape:collect="always"
       xlink:href="#linearGradient854"
       id="linearGradient856"
       x1="-2589.4128"
       y1="-54.667744"
       x2="-1841.2626"
       y2="-54.667744"
       gradientUnits="userSpaceOnUse" />
    <linearGradient
       inkscape:collect="always"
       xlink:href="#linearGradient854"
       id="linearGradient890"
       gradientUnits="userSpaceOnUse"
       x1="-2589.4128"
       y1="-54.667744"
       x2="-1917.5338"
       y2="-54.667744" />
  </defs>
  <sodipodi:namedview
     pagecolor="#ffffff"
     bordercolor="#666666"
     borderopacity="1"
     objecttolerance="10"
     gridtolerance="10"
     guidetolerance="10"
     inkscape:pageopacity="0"
     inkscape:pageshadow="2"
     inkscape:window-width="1853"
     inkscape:window-height="1025"
     id="namedview5"
     showgrid="false"
     units="px"
     inkscape:zoom="0.70799944"
     inkscape:cx="376.48059"
     inkscape:cy="172.15821"
     inkscape:window-x="1987"
     inkscape:window-y="27"
     inkscape:window-maximized="1"
     inkscape:current-layer="svg3" />
  <g
     id="g969"
     transform="matrix(2.1898231,0,0,2.1898231,-424.64411,-213.99485)"
     style="stroke-width:0.45665789">
    <path
       id="path841"
       d="m 263.92161,103.54431 c 8.08648,-2.37263 27.72509,-7.002361 35.54499,-5.091818 4.58531,1.119668 16.19075,5.936018 14.36018,12.120848 -1.01303,3.40343 -5.18068,3.94549 -8.1398,4.60307 0,0 -7.109,1.24408 -7.109,1.24408 0,0 -5.33175,1.56398 -5.33175,1.56398 0,0 -12.44075,0.79087 -12.44075,0.79087 0,0 -23.99287,4.4609 -23.99287,4.4609 -6.03376,1.20853 -7.97985,0.69313 -14.218,3.42121 -6.2026,2.71919 -13.4449,8.3975 -18.51006,12.88506 -4.03435,3.57227 -6.22037,4.56753 -9.51717,9.29502 -3.51007,5.72274 -5.16291,15.74643 0,21.27368 4.05213,4.76303 15.56871,7.34004 21.80686,6.87796 0,0 10.66349,-0.60427 10.66349,-0.60427 8.88625,-0.10663 23.202,-3.71445 31.9905,-6.08708 3.98993,-1.07524 9.09063,-1.46623 11.8898,-4.67417 1.17299,-1.34182 2.91469,-3.84774 0.95972,-5.4295 -2.25711,-1.53732 -14.79561,-0.22215 -18.18127,0 0,0 -15.10662,0 -15.10662,0 -2.88803,0.0178 -7.8821,0.009 -10.00592,-2.22156 -4.78969,-5.02073 5.28732,-14.12025 9.36611,-16.17297 3.37677,-1.69727 19.452,-3.01244 24.63268,-3.87441 0,0 36.43362,-6.86018 36.43362,-6.86018 3.359,-0.0356 9.60604,-1.30628 10.6635,2.66587 0,0 3.5545,0.88863 3.5545,0.88863 0,0 -4.44312,4.44312 -4.44312,4.44312 0.33767,6.32701 -2.23045,6.30924 -4.01659,11.17891 0,0 -1.1641,7.33115 -1.1641,7.33115 0,0 -5.0385,8.14869 -5.0385,8.14869 0,0 -3.37678,7.77547 -3.37678,7.77547 -1.19964,1.82168 -2.48814,2.16824 -3.75888,3.50118 0,0 -6.44253,8.7263 -6.44253,8.7263 -0.95083,2.85248 6.56694,15.51539 0,17.3193 -2.71919,4.50533 -9.35722,7.82878 -14.4135,8.77073 0,0 -9.77487,0 -9.77487,0 -0.97749,-2.09716 -4.66528,-10.28139 -6.34478,-11.35663 -2.15936,-1.05746 -8.11315,-0.5154 -10.53909,0 -5.90047,0.75533 -11.79205,1.68839 -17.7725,1.69727 0,0 -9.77487,0 -9.77487,0 -13.80035,-0.0178 -26.55212,-5.60722 -35.84713,-15.86195 -1.54621,-1.70616 -4.10545,-4.35426 -5.04739,-6.36256 -0.75533,-1.62618 -1.73282,-10.53909 -1.53732,-12.43186 0.2577,-2.59478 4.70971,-14.84892 5.93601,-17.7725 1.85723,-4.47867 9.81042,-16.24406 13.43601,-19.47866 4.7186,-4.22097 9.37499,-8.51303 15.06219,-11.38328 5.61611,-2.83472 17.577,-7.54443 21.327,-11.79206 4.54087,0.1955 9.78376,-2.22156 14.218,-3.52784 z"
       style="fill:#35a047;fill-opacity:1;stroke:none;stroke-width:0.45665786"
       inkscape:connector-curvature="0" />
    <path
       id="path839"
       d="m 393.82968,168.38728 c 0.56872,-6.86907 2.98578,-9.55272 4.78081,-15.02665 0.99526,-3.04798 0.30213,-4.75414 2.30153,-8.04206 3.01244,-4.99407 8.84182,-6.54916 14.07582,-8.1398 7.25118,-2.18602 15.53317,-2.12382 23.10425,-2.69254 8.37085,-0.63981 14.69786,-2.2571 23.10425,-0.75533 -1.98164,11.03673 1.01303,16.73281 -9.77488,16.88388 0,0 -17.77249,0 -17.77249,0 -4.88744,-0.0622 -14.40461,-1.94609 -18.39454,1.51955 -2.45261,2.12381 -2.68365,6.13151 -2.93246,9.14395 0,0 8.88625,-1.6173 8.88625,-1.6173 0,0 18.66112,-1.04858 18.66112,-1.04858 2.03495,0.0267 8.00651,0.21327 9.67713,0.87085 5.53613,2.20379 3.01243,9.78376 -0.44432,12.68957 -2.20379,1.85722 -5.62499,1.53732 -8.34419,1.54621 -5.92712,0.009 -26.58765,1.95497 -31.99049,3.5545 1.10189,4.36314 1.49289,9.01065 5.4917,11.90757 3.15462,2.28377 7.78435,1.19076 11.39217,1.05746 0,0 14.218,1.09301 14.218,1.09301 5.90047,0.41766 11.2411,-2.22156 16.88387,-3.11019 2.21268,-0.34656 5.40284,-0.61315 6.57583,1.76837 0.52429,1.07523 0.50651,2.98578 0.53317,4.16765 0.0356,2.23045 0.2577,5.78495 -1.4218,7.46445 -1.45734,1.46623 -4.5853,1.51955 -6.57582,1.79502 -5.02962,0.7109 -10.0148,1.39514 -15.10663,1.40403 0,0 -24.88149,-0.82642 -24.88149,-0.82642 -2.83472,-0.2577 -10.70793,-1.27962 -12.91172,-2.71031 -3.50118,-2.26599 -4.54976,-7.99762 -7.52666,-11.5699 0,0 -1.60841,-21.32699 -1.60841,-21.32699 z"
       style="fill:#35a047;fill-opacity:1;stroke:none;stroke-width:0.45665786"
       inkscape:connector-curvature="0" />
    <path
       id="path837"
       d="m 364.01632,166.61003 c 0,0 -3.21682,-11.55213 -3.21682,-11.55213 -0.95083,-4.28317 -4.36315,-16.96385 -0.63093,-19.86965 3.74111,-2.91469 11.42772,1.6173 12.35189,5.66943 0,0 0,15.08885 0,15.08885 -0.16884,10.57463 1.13744,8.01539 2.31042,15.10662 0,0 5.09182,30.21325 5.09182,30.21325 1.15522,6.1404 3.86552,14.7334 -3.18127,18.55449 -3.46564,1.61729 -9.51718,0.76421 -13.29383,0 -12.31634,-1.75948 -18.19904,-5.24289 -28.436,-12.04087 -2.26599,-1.50178 -6.06042,-3.91884 -7.80213,-5.78495 -5.26066,-5.37618 -3.05687,-13.65816 0,-15.54205 1.77725,-1.0308 5.64277,-0.92417 7.80213,-1.18187 4.62085,7.33116 10.77902,9.87262 17.7725,14.13802 0,0 9.77487,6.30035 9.77487,6.30035 4.22986,-11.27665 3.86552,-27.41408 1.45735,-39.09949 z"
       style="fill:#35a047;fill-opacity:1;stroke:none;stroke-width:0.45665786"
       inkscape:connector-curvature="0" />
    <path
       id="path835"
       d="m 503.48744,135.49581 c -1.07081,-0.007 -2.13649,-5.1e-4 -3.19178,0.0117 -3.87438,0.0444 -17.25753,1.95522 -20.26996,3.80356 -1.71509,1.04858 -2.73652,2.37283 -3.51849,4.21229 -2.27492,5.2962 1.27129,13.88917 2.17769,19.53194 l 1.32387,14.21842 1.62578,8.80597 1.7768,19.62957 c 4.86082,-0.70201 11.5533,-3.28703 12.29974,-8.88537 l -0.74718,-17.77336 c 7.61554,0.68425 10.8683,2.8797 19.55018,0.79143 4.44315,-1.07523 8.80625,-3.08386 12.40517,-5.90969 3.27903,-2.5859 9.54396,-11.96149 9.49064,-16.17357 -0.071,-5.6872 -6.71853,-14.35083 -11.25051,-17.30995 -6.41476,-4.19875 -14.17631,-4.90691 -21.67195,-4.95295 z m -11.1894,14.23014 h 7.99762 c 5.34954,0.009 17.08811,0.8802 18.96315,7.145 1.0041,3.33235 -1.88337,6.05976 -4.74472,7.09945 -3.32348,1.19964 -15.38288,0.94227 -18.38646,-0.55062 -2.95911,-1.47511 -3.57187,-10.55699 -3.82959,-13.69383 z"
       style="fill:#35a047;fill-opacity:1;stroke:none;stroke-width:0.45665786"
       inkscape:connector-curvature="0" />
  </g>
</svg>
