<?xml version="1.0" encoding="UTF-8" standalone="no"?>
<svg
   xmlns:dc="http://purl.org/dc/elements/1.1/"
   xmlns:cc="http://creativecommons.org/ns#"
   xmlns:rdf="http://www.w3.org/1999/02/22-rdf-syntax-ns#"
   xmlns:svg="http://www.w3.org/2000/svg"
   xmlns="http://www.w3.org/2000/svg"
   xmlns:xlink="http://www.w3.org/1999/xlink"
   xmlns:sodipodi="http://sodipodi.sourceforge.net/DTD/sodipodi-0.dtd"
   xmlns:inkscape="http://www.inkscape.org/namespaces/inkscape"
   width="1000"
   height="500"
   viewBox="0 0 749.99943 374.99971"
   version="1.1"
   id="svg3"
   sodipodi:docname="gjep-logo-black.svg"
   inkscape:version="0.92.4 (f8dce91, 2019-08-02)">
  <metadata
     id="metadata9">
    <rdf:RDF>
      <cc:Work
         rdf:about="">
        <dc:format>image/svg+xml</dc:format>
        <dc:type
           rdf:resource="http://purl.org/dc/dcmitype/StillImage" />
        <dc:title></dc:title>
      </cc:Work>
    </rdf:RDF>
  </metadata>
  <defs
     id="defs7">
    <linearGradient
       inkscape:collect="always"
       id="linearGradient854">
      <stop
         style="stop-color:#f6d13b;stop-opacity:1"
         offset="0"
         id="stop850" />
      <stop
         style="stop-color:#d73a3e;stop-opacity:1"
         offset="1"
         id="stop852" />
    </linearGradient>
    <linearGradient
       inkscape:collect="always"
       xlink:href="#linearGradient854"
       id="linearGradient856"
       x1="-2589.4128"
       y1="-54.667744"
       x2="-1841.2626"
       y2="-54.667744"
       gradientUnits="userSpaceOnUse" />
    <linearGradient
       inkscape:collect="always"
       xlink:href="#linearGradient854"
       id="linearGradient890"
       gradientUnits="userSpaceOnUse"
       x1="-2589.4128"
       y1="-54.667744"
       x2="-1917.5338"
       y2="-54.667744" />
  </defs>
  <sodipodi:namedview
     pagecolor="#ffffff"
     bordercolor="#666666"
     borderopacity="1"
     objecttolerance="10"
     gridtolerance="10"
     guidetolerance="10"
     inkscape:pageopacity="0"
     inkscape:pageshadow="2"
     inkscape:window-width="1853"
     inkscape:window-height="1025"
     id="namedview5"
     showgrid="false"
     units="px"
     inkscape:zoom="0.70799944"
     inkscape:cx="227.26951"
     inkscape:cy="134.25063"
     inkscape:window-x="1987"
     inkscape:window-y="27"
     inkscape:window-maximized="1"
     inkscape:current-layer="svg3" />
  <path
     inkscape:connector-curvature="0"
     style="fill:#333333;fill-opacity:1;stroke:none;stroke-width:0.99999994"
     d="m 185.56266,38.834647 c 2.75474,-0.959715 3.09242,-3.279026 6.46031,-3.314571 0,0 6.14039,0 6.14039,0 10.21919,-0.85308 19.6475,-4.674167 29.32463,-7.775468 0,0 10.6635,-2.976893 10.6635,-2.976893 0,0 16.88387,-7.055682 16.88387,-7.055682 6.3981,-2.239335 12.22748,-1.830567 18.66112,-3.163505 0,0 33.76775,-5.2251107 33.76775,-5.2251107 0,0 9.77487,0 9.77487,0 0,0 8.88625,-1.1729849 8.88625,-1.1729849 0,0 7.109,-1.4129136 7.109,-1.4129136 12.66291,-1.0130324 19.3898,-0.8619661 31.9905,0 0,0 7.109,0.7375587 7.109,0.7375587 0,0 23.99287,-3.8388596 23.99287,-3.8388596 7.5622,-0.3821087 15.03553,2.0438373 18.66112,2.0616098 0,0 21.327,-2.5148085 21.327,-2.5148085 0,0 9.77487,0 9.77487,0 0,0 23.35307,4.0343571 23.35307,4.0343571 0,0 16.63506,4.9674137 16.63506,4.9674137 3.8122,1.048577 6.02487,0.488743 9.77487,2.674757 5.71386,3.323457 8.76184,9.321675 12.47629,10.930086 0,0 11.51658,1.972748 11.51658,1.972748 0,0 25.61906,4.798574 25.61906,4.798574 7.15343,1.866112 13.86255,6.220375 21.47806,6.087081 3.44787,3.296798 9.77488,5.402839 14.218,7.43779 0,0 30.58647,14.946671 30.58647,14.946671 0,0 14.7334,9.179496 14.7334,9.179496 4.01659,2.701419 5.72275,5.038503 10.6635,5.758289 4.62974,5.838266 7.06457,6.424758 12.19193,10.867883 0,0 14.46682,12.574042 14.46682,12.574042 0,0 13.1783,8.326413 13.1783,8.326413 3.91884,2.95912 2.68365,3.13685 9.03732,7.19786 0,0 21.98458,13.80924 21.98458,13.80924 2.7814,2.63921 7.26007,11.61433 10.04146,15.6398 0,0 5.09182,6.38032 5.09182,6.38032 7.55331,10.30805 11.78317,21.06041 6.5314,33.46562 -1.44846,3.43009 -4.09657,6.11374 -6.32701,9.03731 0,0 -5.33175,-1.77725 -5.33175,-1.77725 -3.09242,-3.63447 -7.5622,-6.83352 -12.44075,-7.109 -1.09301,-3.47452 -10.78791,-6.94016 -14.218,-7.10899 -3.48341,-4.54976 -4.47867,-3.4923 -8.88625,-6.04265 0,0 -14.06693,-9.70379 -14.06693,-9.70379 -16.19963,-12.59181 -19.63861,-27.39631 -41.02781,-33.12794 -1.27074,-3.69668 -7.35782,-5.48281 -10.6635,-7.26006 0,0 -15.1866,-10.30805 -15.1866,-10.30805 -7.00237,-3.70557 -9.66824,0.48874 -13.2494,-9.09064 0,0 -3.5545,0 -3.5545,0 0,0 0.88862,-2.66587 0.88862,-2.66587 0,0 -6.22037,-3.5545 -6.22037,-3.5545 0,0 -0.88862,-0.888625 -0.88862,-0.888625 -0.4532,-2.212676 -0.49763,-2.150472 -2.66588,-2.665875 -3.84774,-5.44727 -3.33234,-3.332343 -6.99348,-5.891583 -3.359,-2.34597 -2.6481,-3.430092 -7.22452,-3.883291 0,0 -0.88862,-0.888625 -0.88862,-0.888625 0,0 0.88862,-1.777249 0.88862,-1.777249 -10.55686,-0.986374 -16.51953,-10.245846 -28.43599,-9.774874 -1.24408,-3.874405 -4.57642,-3.359003 -7.99763,-4.345376 0,0 -14.06693,-2.221562 -14.06693,-2.221562 0,0 -11.70319,-3.856633 -11.70319,-3.856633 0,0 -15.99525,-3.154618 -15.99525,-3.154618 0,0 -12.44075,-2.896917 -12.44075,-2.896917 0,0 -6.95793,-0.622038 -6.95793,-0.622038 0,0 -5.51836,-1.599524 -5.51836,-1.599524 0,0 -10.62796,-1.119668 -10.62796,-1.119668 -5.96267,-0.85308 -11.67653,-2.328197 -17.77249,-2.399287 0,0 -23.10425,-1.039691 -23.10425,-1.039691 0,0 -23.10425,-1.626184 -23.10425,-1.626184 0,0 -20.43837,2.63033 -20.43837,2.63033 0,0 -15.99525,-0.693128 -15.99525,-0.693128 0,0 -8.88625,2.470378 -8.88625,2.470378 0,0 -12.44075,1.812795 -12.44075,1.812795 0,0 -7.99762,0 -7.99762,0 0,0 -9.77488,1.706159 -9.77488,1.706159 0,0 -15.99525,0 -15.99525,0 -12.29856,0.08886 -18.2879,2.532581 -29.32462,4.132106 0,0 -13.32937,1.679501 -13.32937,1.679501 0,0 -15.99525,3.963267 -15.99525,3.963267 0,0 -6.22037,2.310425 -6.22037,2.310425 0,0 -6.22038,1.519549 -6.22038,1.519549 0,0 -11.55212,4.372034 -11.55212,4.372034 0,0 -14.218,3.190164 -14.218,3.190164 0,0 -5.33175,0 -5.33175,0 4.12322,-0.666469 -16.99939,5.793834 -14.218,4.798574 -5.00296,1.795023 -4.74526,4.576419 -11.30331,8.379733 -4.33649,2.514809 -4.34537,1.830567 -7.27784,3.279026 0,0 -4.67416,2.77251 -4.67416,2.77251 0,0 -5.18069,2.177131 -5.18069,2.177131 0,0 -6.22037,3.625589 -6.22037,3.625589 0,0 -23.98399,11.205557 -23.98399,11.205557 0,0 -5.58945,2.71031 -5.58945,2.71031 -4.86078,1.70616 -12.556267,2.68365 -17.52368,1.27073 0,0 3.554499,-7.109 3.554499,-7.109 -6.842411,-1.37736 -11.783166,-3.38566 -17.772498,1.77725 -5.598337,-0.34656 -11.081152,2.96801 -16.830556,1.91055 -8.370846,-1.54621 1.030805,-12.627363 3.892178,-15.09774 5.251773,-4.54976 6.673573,-3.5545 12.049753,-5.784948 0,0 6.220375,-2.683647 6.220375,-2.683647 0,0 6.140398,-0.799763 6.140398,-0.799763 3.981039,-0.826421 13.524871,-5.616109 16.075221,-8.64632 0,0 6.22038,1.77725 6.22038,1.77725 0,0 -0.88863,3.554499 -0.88863,3.554499 5.76718,-0.07109 11.18779,-1.857226 15.10663,-6.220374 0,0 -7.109,2.665875 -7.109,2.665875 -0.60427,-9.517173 6.43364,-8.930681 12.28968,-12.938379 0,0 5.51836,-4.19431 5.51836,-4.19431 0,0 11.51658,-6.211488 11.51658,-6.211488 0,0 7.26006,-5.864924 7.26006,-5.864924 3.28792,-2.008292 18.02132,-8.077601 22.06456,-9.00177 0,0 -1.77725,-1.77725 -1.77725,-1.77725 0,0 0,-0.702014 0,-0.702014 2.61256,0.550947 5.16291,1.297392 7.83767,0 z"
     id="path843" />
  <path
     inkscape:connector-curvature="0"
     style="fill:#333333;fill-opacity:1;stroke:none;stroke-width:0.99999994"
     d="m 263.92161,103.54431 c 8.08648,-2.37263 27.72509,-7.002361 35.54499,-5.091818 4.58531,1.119668 16.19075,5.936018 14.36018,12.120848 -1.01303,3.40343 -5.18068,3.94549 -8.1398,4.60307 0,0 -7.109,1.24408 -7.109,1.24408 0,0 -5.33175,1.56398 -5.33175,1.56398 0,0 -12.44075,0.79087 -12.44075,0.79087 0,0 -23.99287,4.4609 -23.99287,4.4609 -6.03376,1.20853 -7.97985,0.69313 -14.218,3.42121 -6.2026,2.71919 -13.4449,8.3975 -18.51006,12.88506 -4.03435,3.57227 -6.22037,4.56753 -9.51717,9.29502 -3.51007,5.72274 -5.16291,15.74643 0,21.27368 4.05213,4.76303 15.56871,7.34004 21.80686,6.87796 0,0 10.66349,-0.60427 10.66349,-0.60427 8.88625,-0.10663 23.202,-3.71445 31.9905,-6.08708 3.98993,-1.07524 9.09063,-1.46623 11.8898,-4.67417 1.17299,-1.34182 2.91469,-3.84774 0.95972,-5.4295 -2.25711,-1.53732 -14.79561,-0.22215 -18.18127,0 0,0 -15.10662,0 -15.10662,0 -2.88803,0.0178 -7.8821,0.009 -10.00592,-2.22156 -4.78969,-5.02073 5.28732,-14.12025 9.36611,-16.17297 3.37677,-1.69727 19.452,-3.01244 24.63268,-3.87441 0,0 36.43362,-6.86018 36.43362,-6.86018 3.359,-0.0356 9.60604,-1.30628 10.6635,2.66587 0,0 3.5545,0.88863 3.5545,0.88863 0,0 -4.44312,4.44312 -4.44312,4.44312 0.33767,6.32701 -2.23045,6.30924 -4.01659,11.17891 0,0 -1.1641,7.33115 -1.1641,7.33115 0,0 -5.0385,8.14869 -5.0385,8.14869 0,0 -3.37678,7.77547 -3.37678,7.77547 -1.19964,1.82168 -2.48814,2.16824 -3.75888,3.50118 0,0 -6.44253,8.7263 -6.44253,8.7263 -0.95083,2.85248 6.56694,15.51539 0,17.3193 -2.71919,4.50533 -9.35722,7.82878 -14.4135,8.77073 0,0 -9.77487,0 -9.77487,0 -0.97749,-2.09716 -4.66528,-10.28139 -6.34478,-11.35663 -2.15936,-1.05746 -8.11315,-0.5154 -10.53909,0 -5.90047,0.75533 -11.79205,1.68839 -17.7725,1.69727 0,0 -9.77487,0 -9.77487,0 -13.80035,-0.0178 -26.55212,-5.60722 -35.84713,-15.86195 -1.54621,-1.70616 -4.10545,-4.35426 -5.04739,-6.36256 -0.75533,-1.62618 -1.73282,-10.53909 -1.53732,-12.43186 0.2577,-2.59478 4.70971,-14.84892 5.93601,-17.7725 1.85723,-4.47867 9.81042,-16.24406 13.43601,-19.47866 4.7186,-4.22097 9.37499,-8.51303 15.06219,-11.38328 5.61611,-2.83472 17.577,-7.54443 21.327,-11.79206 4.54087,0.1955 9.78376,-2.22156 14.218,-3.52784 z"
     id="path841" />
  <path
     inkscape:connector-curvature="0"
     style="fill:#333333;fill-opacity:1;stroke:none;stroke-width:0.99999994"
     d="m 393.82968,168.38728 c 0.56872,-6.86907 2.98578,-9.55272 4.78081,-15.02665 0.99526,-3.04798 0.30213,-4.75414 2.30153,-8.04206 3.01244,-4.99407 8.84182,-6.54916 14.07582,-8.1398 7.25118,-2.18602 15.53317,-2.12382 23.10425,-2.69254 8.37085,-0.63981 14.69786,-2.2571 23.10425,-0.75533 -1.98164,11.03673 1.01303,16.73281 -9.77488,16.88388 0,0 -17.77249,0 -17.77249,0 -4.88744,-0.0622 -14.40461,-1.94609 -18.39454,1.51955 -2.45261,2.12381 -2.68365,6.13151 -2.93246,9.14395 0,0 8.88625,-1.6173 8.88625,-1.6173 0,0 18.66112,-1.04858 18.66112,-1.04858 2.03495,0.0267 8.00651,0.21327 9.67713,0.87085 5.53613,2.20379 3.01243,9.78376 -0.44432,12.68957 -2.20379,1.85722 -5.62499,1.53732 -8.34419,1.54621 -5.92712,0.009 -26.58765,1.95497 -31.99049,3.5545 1.10189,4.36314 1.49289,9.01065 5.4917,11.90757 3.15462,2.28377 7.78435,1.19076 11.39217,1.05746 0,0 14.218,1.09301 14.218,1.09301 5.90047,0.41766 11.2411,-2.22156 16.88387,-3.11019 2.21268,-0.34656 5.40284,-0.61315 6.57583,1.76837 0.52429,1.07523 0.50651,2.98578 0.53317,4.16765 0.0356,2.23045 0.2577,5.78495 -1.4218,7.46445 -1.45734,1.46623 -4.5853,1.51955 -6.57582,1.79502 -5.02962,0.7109 -10.0148,1.39514 -15.10663,1.40403 0,0 -24.88149,-0.82642 -24.88149,-0.82642 -2.83472,-0.2577 -10.70793,-1.27962 -12.91172,-2.71031 -3.50118,-2.26599 -4.54976,-7.99762 -7.52666,-11.5699 0,0 -1.60841,-21.32699 -1.60841,-21.32699 z"
     id="path839" />
  <path
     inkscape:connector-curvature="0"
     style="fill:#333333;fill-opacity:1;stroke:none;stroke-width:0.99999994"
     d="m 364.01632,166.61003 c 0,0 -3.21682,-11.55213 -3.21682,-11.55213 -0.95083,-4.28317 -4.36315,-16.96385 -0.63093,-19.86965 3.74111,-2.91469 11.42772,1.6173 12.35189,5.66943 0,0 0,15.08885 0,15.08885 -0.16884,10.57463 1.13744,8.01539 2.31042,15.10662 0,0 5.09182,30.21325 5.09182,30.21325 1.15522,6.1404 3.86552,14.7334 -3.18127,18.55449 -3.46564,1.61729 -9.51718,0.76421 -13.29383,0 -12.31634,-1.75948 -18.19904,-5.24289 -28.436,-12.04087 -2.26599,-1.50178 -6.06042,-3.91884 -7.80213,-5.78495 -5.26066,-5.37618 -3.05687,-13.65816 0,-15.54205 1.77725,-1.0308 5.64277,-0.92417 7.80213,-1.18187 4.62085,7.33116 10.77902,9.87262 17.7725,14.13802 0,0 9.77487,6.30035 9.77487,6.30035 4.22986,-11.27665 3.86552,-27.41408 1.45735,-39.09949 z"
     id="path837" />
  <path
     inkscape:connector-curvature="0"
     style="fill:#333333;fill-opacity:1;stroke:none;stroke-width:0.99999994"
     d="m 503.48744,135.49581 c -1.07081,-0.007 -2.13649,-5.1e-4 -3.19178,0.0117 -3.87438,0.0444 -17.25753,1.95522 -20.26996,3.80356 -1.71509,1.04858 -2.73652,2.37283 -3.51849,4.21229 -2.27492,5.2962 1.27129,13.88917 2.17769,19.53194 l 1.32387,14.21842 1.62578,8.80597 1.7768,19.62957 c 4.86082,-0.70201 11.5533,-3.28703 12.29974,-8.88537 l -0.74718,-17.77336 c 7.61554,0.68425 10.8683,2.8797 19.55018,0.79143 4.44315,-1.07523 8.80625,-3.08386 12.40517,-5.90969 3.27903,-2.5859 9.54396,-11.96149 9.49064,-16.17357 -0.071,-5.6872 -6.71853,-14.35083 -11.25051,-17.30995 -6.41476,-4.19875 -14.17631,-4.90691 -21.67195,-4.95295 z m -11.1894,14.23014 h 7.99762 c 5.34954,0.009 17.08811,0.8802 18.96315,7.145 1.0041,3.33235 -1.88337,6.05976 -4.74472,7.09945 -3.32348,1.19964 -15.38288,0.94227 -18.38646,-0.55062 -2.95911,-1.47511 -3.57187,-10.55699 -3.82959,-13.69383 z"
     id="path835" />
  <path
     inkscape:connector-curvature="0"
     style="fill:#333333;fill-opacity:1;stroke:none;stroke-width:0.99999994;stroke-opacity:1"
     d="m 55.983379,255.47252 c 0,0 19.549748,0 19.549748,0 7.50888,-0.10664 8.983997,-2.6481 20.438373,-2.55036 0,0 34.65637,0 34.65637,0 0,0 7.99763,0.72868 7.99763,0.72868 0,0 10.66349,0 10.66349,0 0,0 8.88625,-1.02192 8.88625,-1.02192 0,0 139.51411,0 139.51411,0 0,0 55.09475,0 55.09475,0 0,0 7.99762,0 7.99762,0 0,0 9.77488,-0.7109 9.77488,-0.7109 0,0 36.43362,0 36.43362,0 0,0 15.10662,-0.88863 15.10662,-0.88863 0,0 46.2085,0 46.2085,0 0,0 15.10662,-0.88862 15.10662,-0.88862 0,0 64.86962,0 64.86962,0 0,0 9.77487,-0.81754 9.77487,-0.81754 0,0 7.109,0.65759 7.109,0.65759 0,0 10.6635,-0.72868 10.6635,-0.72868 0,0 47.09712,0.88863 47.09712,0.88863 1.36848,4.28317 5.19846,3.34123 8.88625,3.70556 3.54561,0.34657 13.20497,1.37737 15.79975,3.30569 1.52844,1.12855 1.94609,2.10604 2.86137,3.65225 0,0 -15.10662,2.66587 -15.10662,2.66587 0,0 9.77487,1.77725 9.77487,1.77725 0,0 0,2.66588 0,2.66588 0,0 -0.88862,0 -0.88862,0 0,0 -1.77725,1.77725 -1.77725,1.77725 0,0 21.327,0 21.327,0 9.37499,0.0444 7.05568,2.14158 11.80094,3.46563 2.58589,0.72868 8.50414,0.97749 11.3033,0.97749 0,0 58.64925,-0.88862 58.64925,-0.88862 0,0 1.77725,4.44312 1.77725,4.44312 0,0 -32.87912,0.88863 -32.87912,0.88863 0,0 -25.77013,0 -25.77013,0 0,0 -8.88624,0.5154 -8.88624,0.5154 0,0 -8.88625,0 -8.88625,0 0,0 -6.22038,-0.49763 -6.22038,-0.49763 0,0 -11.55212,0 -11.55212,0 0,0 -9.77488,0.84419 -9.77488,0.84419 0,0 -103.96911,0 -103.96911,0 0,0 -8.88625,0.82642 -8.88625,0.82642 0,0 -7.99762,-0.63981 -7.99762,-0.63981 0,0 -10.6635,0.72867 -10.6635,0.72867 0,0 -249.7036,0 -249.7036,0 0,0 -177.724984,0 -177.724984,0 0,0 -55.094745,0 -55.094745,0 0,0 -29.3246216936098,-0.88862 -29.3246216936098,-0.88862 0,0 0,-1.77725 0,-1.77725 0,0 12.4407486936098,-1.77725 12.4407486936098,-1.77725 2.257107,-6.62026 12.111958,-5.44727 17.772498,-7.109 0,0 -1.77725,0 -1.77725,0 0,0 0,-0.88862 0,-0.88862 7.331156,-3.34123 7.224521,-2.66588 15.106624,-2.66588 0,0 0,-1.77725 0,-1.77725 0,0 -13.329374,0 -13.329374,0 9.277244,-11.45437 13.26717,-8.0154 25.770123,-7.99762 z"
     id="path831" />
  <path
     style="fill:#333333;fill-opacity:1;stroke:none;stroke-width:0.99999994;stroke-opacity:1"
     d="m 391.88359,320.4932 c 8.59301,-3.75888 15.44431,-7.109 24.8815,-8.21089 2.85249,-0.37322 4.35426,-0.0533 7.109,0 13.00058,0.44431 10.05035,0.52429 22.21562,4.11433 0,0 5.97156,1.66173 5.97156,1.66173 3.19017,1.39514 9.05509,6.67357 14.46682,8.50414 1.19075,4.17654 7.2334,8.80627 10.6635,11.55212 0,0 -0.88863,2.66588 -0.88863,2.66588 4.73637,1.63507 4.38981,2.83471 8.0776,4.86078 4.58531,2.52369 8.96623,3.30568 14.13802,3.11907 5.73163,-0.20438 10.01481,-3.19016 15.10663,-5.21623 10.52132,-4.16765 20.50057,-8.93956 30.18659,-14.86669 3.94549,-2.41706 2.87914,-4.24763 6.24703,-5.66943 0,0 -0.88863,2.66588 -0.88863,2.66588 6.04265,-3.70557 4.94964,-1.90166 10.6635,-3.82109 8.38862,-2.80806 16.85722,-5.18069 25.77012,-5.625 0,0 12.44075,0.55984 12.44075,0.55984 4.10545,3.43897 4.68306,1.34182 8.73519,2.61255 0,0 14.36906,7.19787 14.36906,7.19787 0,0 7.65995,2.87025 7.65995,2.87025 3.21682,2.06161 3.20793,5.58057 5.21623,8.11315 1.43068,1.80391 7.19786,5.92713 9.33944,7.61551 0,0 12.15639,8.29087 12.15639,8.29087 1.66173,1.33294 2.36375,3.44787 0,4.52311 -3.04798,1.38625 -6.17594,-1.32406 -8.42416,-2.9769 -3.95438,-2.9058 -8.56635,-5.8116 -13.5071,-6.25592 0,0 -2.79028,-2.54146 -2.79028,-2.54146 0,0 -11.42772,-4.54088 -11.42772,-4.54088 0,0 -6.1404,-0.7109 -6.1404,-0.7109 0,0 -10.74347,-2.71919 -10.74347,-2.71919 0,0 -15.10663,0 -15.10663,0 0,0 -9.77487,2.47926 -9.77487,2.47926 0,0 -15.10662,0.92417 -15.10662,0.92417 0,0 1.77725,1.77725 1.77725,1.77725 -7.18898,0.55984 -7.20675,3.2346 -12.68957,5.87381 0,0 -34.40755,19.00769 -34.40755,19.00769 0,0 -1.77725,-1.77725 -1.77725,-1.77725 -3.02133,4.54087 -10.25473,5.01185 -15.35544,5.18957 -12.44075,0.42654 -18.94548,-0.80865 -29.95555,-6.81575 -4.89632,-2.67476 -5.71386,-5.33175 -12.44963,-8.14869 0,0 0.88862,-1.77725 0.88862,-1.77725 0,0 -1.77725,0 -1.77725,0 -0.55094,-4.22097 -7.14454,-8.39751 -10.73459,-10.6013 -3.11907,-1.91054 -10.3347,-6.61137 -13.25828,-7.81101 -7.46445,-2.42595 -15.47985,-0.89751 -23.10425,0 -16.89276,1.40403 -36.08705,20.40283 -53.05979,26.72095 -10.56575,3.67891 -29.81337,4.2032 -40.24582,0 0,0 -14.95556,-7.44668 -14.95556,-7.44668 -3.54561,-2.11492 -2.11493,-2.03495 -7.26007,-4.41646 0,0 0.88863,-1.77725 0.88863,-1.77725 -9.98814,-4.16765 -16.4129,-11.79205 -27.54737,-11.54324 -6.25592,0.15107 -19.3898,5.13625 -25.77013,7.28672 0,0 -10.66349,2.95024 -10.66349,2.95024 -16.00414,5.99822 -23.33529,11.35663 -41.51656,11.6321 0,0 -35.79381,-4.10545 -35.79381,-4.10545 -2.87915,-4.63862 -6.80687,-3.88329 -11.55213,-5.36729 -15.1155,-4.72749 -30.92414,-1.23519 -46.20849,0.92417 -6.940161,0.97749 -14.33352,3.94549 -19.549748,-1.77725 0,0 11.552123,-5.33175 11.552123,-5.33175 -5.87381,0.23104 -11.338853,3.09241 -16.883873,4.7808 -10.832338,3.2968 -23.068703,5.16291 -33.767746,0.55095 0,0 2.665874,-4.44313 2.665874,-4.44313 0,0 -1.77725,0.88863 -1.77725,0.88863 0,0 1.77725,-2.66588 1.77725,-2.66588 -10.938972,-0.29324 -14.626766,-1.6795 -23.957327,-7.3667 -2.577013,-1.57286 -6.0426497,-3.68779 -8.2908707,-5.66054 -2.8347135,-2.48815 -5.5094745,-6.24703 -6.0071044,-10.05923 -0.2221562,-1.67062 -0.14218,-3.82109 2.0171785,-3.99881 2.8435997,-0.23993 4.2120821,2.72807 5.5894507,4.62973 2.1149269,2.90581 5.3317499,5.67832 8.4330509,7.48222 4.345375,2.5237 7.126771,3.02133 11.552123,4.57642 0,0 7.109,2.74585 7.109,2.74585 9.188381,2.46149 18.43008,1.22631 27.547372,-0.64869 2.497036,-0.50652 12.076412,-1.37737 13.48044,-2.57702 0.870852,-0.72867 0.550947,-1.0308 0.737558,-1.56398 3.181278,-0.89751 7.811013,-1.91943 8.886249,-5.33174 0,0 7.997625,-1.27962 7.997625,-1.27962 7.571085,-2.3282 8.539685,-6.38922 20.438375,-6.71801 1.61729,-1.84834 5.98044,-3.56338 8.23755,-1.90166 1.50178,1.11967 2.07938,3.91884 4.43424,5.47393 2.66587,1.75948 8.19312,1.94609 11.32108,1.75948 0,0 3.5545,2.66588 3.5545,2.66588 0,0 -3.5545,2.66587 -3.5545,2.66587 0,0 1.77725,3.5545 1.77725,3.5545 0,0 11.55212,2.22156 11.55212,2.22156 0,0 17.7725,3.99881 17.7725,3.99881 2.41706,-2.69253 9.70379,-1.75059 13.32938,-1.77725 8.1398,-0.0622 14.42238,-2.15047 22.21562,-4.37203 0,0 20.43837,-8.25533 20.43837,-8.25533 0,0 11.55213,-4.12322 11.55213,-4.12322 0,0 14.18245,-5.91824 14.18245,-5.91824 4.45201,-0.66647 2.87914,2.21268 13.36492,2.23045 12.6629,0.0178 17.91468,0.57761 29.32462,6.86907 4.77192,2.63033 13.34715,6.31812 15.99525,10.90343 0,0 8.88625,2.66587 8.88625,2.66587 3.13684,3.4923 5.25177,4.0077 9.77487,4.93187 13.71148,2.80806 23.41527,-2.9058 35.545,-8.23755 4.01658,-1.75948 10.20141,-4.39869 13.32937,-7.35781 4.16765,-0.23105 9.41054,-3.47453 13.32937,-5.18069 z"
     id="path829"
     inkscape:connector-curvature="0" />
  <path
     style="fill:#333333;fill-opacity:1;stroke:none;stroke-width:0.99999994;stroke-opacity:1"
     d="m 748.22218,316.78764 c -1.03969,4.22985 -0.68424,4.42535 1.77725,7.99762 0,0 -1.77725,0 -1.77725,0 3.36789,4.70971 -0.08,7.68661 -2.94134,11.55212 0,0 -3.98993,5.34953 -3.98993,5.34953 -9.36611,10.3347 -16.31515,16.04856 -29.50235,21.15816 -5.02073,1.94608 -8.79738,4.07878 -14.218,1.92831 0,0 0,-2.66587 0,-2.66587 0,0 4.44313,-0.88863 4.44313,-0.88863 1.18187,-6.77132 7.57997,-6.15817 8.88625,-9.77487 1.75947,-0.1955 2.75473,-0.23104 4.44312,-0.9686 4.12322,-1.78614 17.52369,-13.08056 20.64276,-16.99051 3.21682,-4.03436 4.75414,-9.28613 5.27843,-9.82819 0.82642,-0.86197 0.97749,-0.47097 1.62618,-0.6487 0,0 0,-3.5545 0,-3.5545 0,0 1.77725,0.88863 1.77725,0.88863 0,0 3.5545,-3.5545 3.5545,-3.5545 z"
     id="Selection #1"
     inkscape:connector-curvature="0" />
</svg>
